<!-- Generated by IcoMoon.io -->
<svg version="1.1" xmlns="http://www.w3.org/2000/svg" width="32" height="32" viewBox="0 0 32 32">
<title>twitter</title>
<path d="M32 6.078c-1.099 0.493-2.375 0.857-3.711 1.028l-0.068 0.007c1.359-0.817 2.379-2.078 2.87-3.579l0.013-0.046c-1.198 0.722-2.591 1.273-4.076 1.573l-0.084 0.014c-1.2-1.281-2.902-2.079-4.79-2.079-3.622 0-6.558 2.936-6.558 6.558 0 0.002 0 0.005 0 0.007v-0c0 0.52 0.045 1.021 0.154 1.496-5.454-0.266-10.28-2.88-13.523-6.861-0.562 0.95-0.895 2.094-0.896 3.315v0c0 2.272 1.168 4.286 2.912 5.453-1.091-0.031-2.107-0.326-2.994-0.825l0.033 0.017v0.072c0.004 3.164 2.237 5.804 5.213 6.437l0.043 0.008c-0.5 0.137-1.075 0.216-1.668 0.216-0.018 0-0.036-0-0.055-0l0.003 0c-0.421 0-0.843-0.024-1.242-0.112 0.85 2.598 3.261 4.509 6.13 4.57-2.215 1.746-5.045 2.8-8.122 2.8-0.004 0-0.008 0-0.013 0h0.001c-0.018 0-0.040 0-0.062 0-0.531 0-1.055-0.034-1.569-0.099l0.061 0.006c2.826 1.846 6.287 2.944 10.004 2.944 0.021 0 0.042-0 0.063-0h-0.003c12.072 0 18.672-10 18.672-18.669 0-0.288-0.010-0.57-0.024-0.848 1.299-0.936 2.39-2.064 3.258-3.355l0.030-0.047z"></path>
</svg>
